<svg width="45" height="45" viewBox="0 0 45 45" fill="none" xmlns="http://www.w3.org/2000/svg">
<path d="M34.7115 0.546875H10.4351C4.97441 0.546875 0.547607 4.97368 0.547607 10.4344V34.7108C0.547607 40.1715 4.97441 44.5983 10.4351 44.5983H34.7115C40.1722 44.5983 44.599 40.1715 44.599 34.7108V10.4344C44.599 4.97368 40.1722 0.546875 34.7115 0.546875Z" fill="white"/>
<path fill-rule="evenodd" clip-rule="evenodd" d="M10.4047 30.4682V14.6908H18.156C18.995 14.681 19.8267 14.8474 20.5974 15.1791C21.1919 15.4223 21.7098 15.8214 22.0965 16.3343C22.4832 16.8473 22.7244 17.455 22.7946 18.0935C22.9134 18.8147 22.8505 19.5542 22.6115 20.2449C22.3466 20.9036 21.8538 21.4451 21.223 21.7708L20.9178 21.9386H21.0551C21.6298 22.1507 22.1369 22.5132 22.5234 22.9883C22.9099 23.4634 23.1617 24.0337 23.2524 24.6394C23.4675 25.6708 23.3333 26.7444 22.8709 27.6911C22.5623 28.3565 22.0921 28.9341 21.5031 29.3712C20.9141 29.8083 20.225 30.091 19.4988 30.1935C18.8333 30.3061 18.1595 30.3623 17.4846 30.3614H10.4047V30.4682ZM14.0515 27.7216H17.4541C17.7924 27.7169 18.1295 27.6811 18.4612 27.6148C18.835 27.5692 19.1846 27.4055 19.459 27.1475C19.7334 26.8896 19.9184 26.5508 19.987 26.1805C20.0276 25.8869 20.0276 25.5891 19.987 25.2955C19.9747 24.9526 19.8567 24.6219 19.6491 24.3488C19.4415 24.0756 19.1545 23.8733 18.8274 23.7697C18.4599 23.6393 18.0729 23.5723 17.683 23.5713H14.0515V27.7216ZM14.0515 20.9011H17.4846C18.0134 20.9194 18.5382 20.8039 19.0105 20.5654C19.1726 20.4832 19.315 20.367 19.4283 20.2248C19.5415 20.0827 19.6228 19.9178 19.6666 19.7414C19.7291 19.4292 19.7291 19.1076 19.6666 18.7954C19.6449 18.5181 19.5357 18.2549 19.3547 18.0437C19.1737 17.8325 18.9302 17.6843 18.6595 17.6205C18.1617 17.4883 17.6488 17.4216 17.1337 17.4221H14.082L14.0515 20.9011ZM35.7644 25.1582H27.5247V25.6465C27.5628 25.9633 27.6503 26.2723 27.7841 26.562C27.9542 26.917 28.2086 27.2251 28.5251 27.4591C28.8416 27.6932 29.2106 27.8462 29.5999 27.9047C30.0529 27.9981 30.5202 27.9981 30.9732 27.9047C31.298 27.843 31.6043 27.7078 31.8688 27.5095C32.1333 27.3111 32.3489 27.0549 32.499 26.7603C32.5117 26.731 32.5332 26.7064 32.5606 26.69C32.588 26.6736 32.6198 26.6662 32.6516 26.6688H35.6423C35.6423 26.8214 35.6423 26.974 35.5355 27.1113C35.3528 27.6806 35.0452 28.2019 34.6352 28.6371C33.813 29.5675 32.6786 30.1645 31.4462 30.3156C30.465 30.4771 29.4605 30.4251 28.5013 30.163C27.5053 29.8993 26.5988 29.3722 25.8768 28.6371C25.3113 28.0226 24.9305 27.2611 24.7782 26.4399C24.4526 24.9844 24.5157 23.4688 24.9613 22.0455C25.2175 21.1175 25.7398 20.2848 26.4638 19.6503C27.1878 19.0158 28.0818 18.6072 29.0353 18.475C30.2904 18.2274 31.5905 18.3548 32.7737 18.8412C33.8497 19.2961 34.7194 20.1331 35.2151 21.191C35.5427 21.8942 35.7195 22.6583 35.7338 23.434V25.1277C35.7796 25.0972 35.7796 25.1277 35.7644 25.1582ZM32.7127 23.2051V22.8847C32.6622 22.4781 32.502 22.0929 32.2494 21.7703C31.9967 21.4478 31.661 21.2 31.2783 21.0537C30.8562 20.8898 30.4016 20.8271 29.9509 20.8706C29.5197 20.878 29.1002 21.0122 28.7448 21.2564C28.3894 21.5006 28.1136 21.844 27.952 22.2438C27.8549 22.4772 27.7733 22.7168 27.7078 22.961C27.7026 23.0575 27.7026 23.1543 27.7078 23.2509L32.7127 23.2051ZM26.9602 17.1627V15.3317H33.3077V17.1475L26.9602 17.1627Z" fill="#181818"/>
</svg>
