<svg width="46" height="45" viewBox="0 0 46 45" fill="none" xmlns="http://www.w3.org/2000/svg">
<path d="M35.23 0.0537109H10.5027C4.94055 0.0537109 0.431519 4.57041 0.431519 10.142V34.9114C0.431519 40.483 4.94055 44.9997 10.5027 44.9997H35.23C40.7922 44.9997 45.3012 40.483 45.3012 34.9114V10.142C45.3012 4.57041 40.7922 0.0537109 35.23 0.0537109Z" fill="white"/>
<path d="M30.25 14.1057C29.9218 14.1057 29.601 14.2015 29.3282 14.3809C29.0553 14.5603 28.8426 14.8154 28.7171 15.1137C28.5915 15.4121 28.5586 15.7404 28.6226 16.0572C28.6867 16.3739 28.8447 16.6649 29.0767 16.8933C29.3088 17.1216 29.6044 17.2772 29.9263 17.3402C30.2482 17.4032 30.5818 17.3708 30.885 17.2472C31.1882 17.1237 31.4473 16.9144 31.6296 16.6458C31.8119 16.3773 31.9093 16.0616 31.9093 15.7386C31.9093 15.3056 31.7344 14.8902 31.4233 14.584C31.1121 14.2777 30.6901 14.1057 30.25 14.1057ZM36.6105 17.3988C36.5836 16.2697 36.3687 15.1527 35.9744 14.0921C35.6229 13.1847 35.0757 12.3629 34.3705 11.6835C33.6858 10.9861 32.8489 10.4509 31.9231 10.1187C30.8482 9.71882 29.7119 9.50253 28.5631 9.47911C27.0974 9.39746 26.6273 9.39746 22.8663 9.39746C19.1053 9.39746 18.6352 9.39746 17.1695 9.47911C16.0207 9.50253 14.8844 9.71882 13.8095 10.1187C12.8854 10.4543 12.0493 10.989 11.3621 11.6835C10.6534 12.3574 10.1096 13.181 9.77202 14.0921C9.36573 15.1499 9.14594 16.2682 9.12215 17.3988C9.03918 18.8412 9.03918 19.3038 9.03918 23.0051C9.03918 26.7064 9.03918 27.1691 9.12215 28.6115C9.14594 29.7421 9.36573 30.8603 9.77202 31.9181C10.1096 32.8292 10.6534 33.6529 11.3621 34.3267C12.0493 35.0213 12.8854 35.5559 13.8095 35.8916C14.8844 36.2914 16.0207 36.5077 17.1695 36.5311C18.6352 36.6128 19.1053 36.6128 22.8663 36.6128C26.6273 36.6128 27.0974 36.6128 28.5631 36.5311C29.7119 36.5077 30.8482 36.2914 31.9231 35.8916C32.8489 35.5593 33.6858 35.0242 34.3705 34.3267C35.0788 33.6498 35.6265 32.8274 35.9744 31.9181C36.3687 30.8575 36.5836 29.7405 36.6105 28.6115C36.6105 27.1691 36.6934 26.7064 36.6934 23.0051C36.6934 19.3038 36.6934 18.8412 36.6105 17.3988ZM34.1216 28.4482C34.1115 29.312 33.9526 30.1678 33.6515 30.9792C33.4307 31.5714 33.0761 32.1065 32.6144 32.5441C32.166 32.9938 31.6234 33.3421 31.0243 33.5647C30.1998 33.861 29.3302 34.0174 28.4525 34.0273C27.0698 34.0954 26.5582 34.109 22.9216 34.109C19.2851 34.109 18.7735 34.109 17.3908 34.0273C16.4794 34.0441 15.5719 33.906 14.7083 33.6191C14.1356 33.3851 13.6178 33.0377 13.1873 32.5985C12.7284 32.1614 12.3782 31.6258 12.1641 31.0336C11.8265 30.2106 11.6393 29.3353 11.611 28.4482C11.611 27.0874 11.5281 26.5839 11.5281 23.0051C11.5281 19.4263 11.5281 18.9228 11.611 17.5621C11.6172 16.679 11.781 15.8039 12.095 14.9766C12.3384 14.4022 12.712 13.8902 13.1873 13.4798C13.6074 13.0119 14.1266 12.6403 14.7083 12.3911C15.5511 12.0918 16.4395 11.9354 17.3355 11.9285C18.7182 11.9285 19.2298 11.8468 22.8663 11.8468C26.5029 11.8468 27.0145 11.8468 28.3972 11.9285C29.2749 11.9384 30.1445 12.0948 30.969 12.3911C31.5974 12.6206 32.1613 12.9938 32.6144 13.4798C33.0676 13.8978 33.4216 14.4088 33.6515 14.9766C33.9588 15.8052 34.1178 16.68 34.1216 17.5621C34.1907 18.9228 34.2046 19.4263 34.2046 23.0051C34.2046 26.5839 34.1907 27.0874 34.1216 28.4482ZM22.8663 16.0244C21.464 16.0271 20.0939 16.4388 18.9293 17.2075C17.7646 17.9761 16.8576 19.0673 16.3228 20.3431C15.7881 21.6189 15.6496 23.0221 15.9248 24.3753C16.2001 25.7285 16.8767 26.9711 17.8693 27.946C18.8619 28.9209 20.1258 29.5844 21.5014 29.8527C22.877 30.1209 24.3025 29.9819 25.5978 29.4532C26.8932 28.9244 28.0002 28.0297 28.779 26.882C29.5578 25.7343 29.9735 24.3852 29.9735 23.0051C29.9753 22.0867 29.7926 21.1771 29.4359 20.3284C29.0792 19.4798 28.5556 18.7089 27.8951 18.0602C27.2346 17.4114 26.4502 16.8976 25.5872 16.5482C24.7242 16.1988 23.7995 16.0208 22.8663 16.0244ZM22.8663 27.5365C21.9556 27.5365 21.0654 27.2707 20.3082 26.7728C19.551 26.2749 18.9609 25.5672 18.6124 24.7392C18.2639 23.9112 18.1727 23.0001 18.3504 22.1211C18.528 21.2421 18.9665 20.4347 19.6105 19.801C20.2544 19.1672 21.0749 18.7357 21.968 18.5608C22.8612 18.386 23.787 18.4757 24.6284 18.8187C25.4697 19.1617 26.1888 19.7425 26.6948 20.4876C27.2007 21.2328 27.4707 22.1089 27.4707 23.0051C27.4707 23.6002 27.3517 24.1894 27.1203 24.7392C26.8889 25.289 26.5497 25.7885 26.1221 26.2093C25.6946 26.63 25.187 26.9638 24.6284 27.1915C24.0697 27.4193 23.471 27.5365 22.8663 27.5365Z" fill="#181818"/>
</svg>
