<svg width="45" height="45" viewBox="0 0 45 45" fill="none" xmlns="http://www.w3.org/2000/svg">
<path d="M34.858 0.547852H10.5816C5.12089 0.547852 0.694092 4.97465 0.694092 10.4354V34.7117C0.694092 40.1725 5.12089 44.5993 10.5816 44.5993H34.858C40.3187 44.5993 44.7455 40.1725 44.7455 34.7117V10.4354C44.7455 4.97465 40.3187 0.547852 34.858 0.547852Z" fill="white"/>
<path d="M26.4688 20.2305C27.836 20.2305 29.1472 20.7774 30.1139 21.7509C31.0806 22.7244 31.6237 24.0447 31.6237 25.4215V31.4776H28.1871V25.4215C28.1871 24.9626 28.0061 24.5224 27.6838 24.1979C27.3616 23.8734 26.9245 23.6911 26.4688 23.6911C26.0131 23.6911 25.576 23.8734 25.2538 24.1979C24.9315 24.5224 24.7505 24.9626 24.7505 25.4215V31.4776H21.3138V25.4215C21.3138 24.0447 21.857 22.7244 22.8237 21.7509C23.7904 20.7774 25.1016 20.2305 26.4688 20.2305Z" fill="#181818"/>
<path d="M17.5649 20.2305H13.8158V31.4776H17.5649V20.2305Z" fill="#181818"/>
<path d="M15.6903 18.3555C16.7256 18.3555 17.5649 17.5162 17.5649 16.481C17.5649 15.4457 16.7256 14.6064 15.6903 14.6064C14.6551 14.6064 13.8158 15.4457 13.8158 16.481C13.8158 17.5162 14.6551 18.3555 15.6903 18.3555Z" fill="#181818"/>
</svg>

